<svg id="visual" viewBox="0 0 1189 400" width="1189" height="400" xmlns="http://www.w3.org/2000/svg" xmlns:xlink="http://www.w3.org/1999/xlink" version="1.1"><rect x="0" y="0" width="1189" height="400" fill="#FFFFFF"></rect><defs><linearGradient id="grad1_0" x1="66.4%" y1="0%" x2="100%" y2="100%"><stop offset="-9.450000000000003%" stop-color="#ffffff" stop-opacity="1"></stop><stop offset="109.44999999999999%" stop-color="#ffffff" stop-opacity="1"></stop></linearGradient></defs><defs><linearGradient id="grad2_0" x1="0%" y1="0%" x2="33.6%" y2="100%"><stop offset="-9.450000000000003%" stop-color="#ffffff" stop-opacity="1"></stop><stop offset="109.44999999999999%" stop-color="#ffffff" stop-opacity="1"></stop></linearGradient></defs><g transform="translate(1189, 0)"><path d="M0 360C-52.9 359.8 -105.9 359.5 -137 330.7C-168.2 302 -177.5 244.7 -211.4 211.4C-245.3 178.2 -303.7 169 -332.6 137.8C-361.4 106.5 -360.7 53.3 -360 0L0 0Z" fill="#0D6EFD"></path></g><g transform="translate(0, 400)"><path d="M0 -360C47.8 -356.4 95.6 -352.9 137.8 -332.6C180 -312.3 216.5 -275.3 235.5 -235.5C254.4 -195.6 255.7 -153 273.5 -113.3C291.3 -73.6 325.6 -36.8 360 0L0 0Z" fill="#0D6EFD"></path></g></svg>