<svg id="visual" viewBox="0 0 900 600" width="900" height="600" xmlns="http://www.w3.org/2000/svg" xmlns:xlink="http://www.w3.org/1999/xlink" version="1.1"><path d="M0 471L21.5 479.2C43 487.3 86 503.7 128.8 498.3C171.7 493 214.3 466 257.2 447C300 428 343 417 385.8 426.2C428.7 435.3 471.3 464.7 514.2 478.7C557 492.7 600 491.3 642.8 493.3C685.7 495.3 728.3 500.7 771.2 486.7C814 472.7 857 439.3 878.5 422.7L900 406L900 601L878.5 601C857 601 814 601 771.2 601C728.3 601 685.7 601 642.8 601C600 601 557 601 514.2 601C471.3 601 428.7 601 385.8 601C343 601 300 601 257.2 601C214.3 601 171.7 601 128.8 601C86 601 43 601 21.5 601L0 601Z" fill="#0066FF" stroke-linecap="round" stroke-linejoin="miter"></path></svg>