<svg id="visual" viewBox="0 0 1400 600" width="1400" height="600" xmlns="http://www.w3.org/2000/svg" xmlns:xlink="http://www.w3.org/1999/xlink" version="1.1"><path d="M201 0L207 14.3C213 28.7 225 57.3 216.8 85.8C208.7 114.3 180.3 142.7 162.7 171.2C145 199.7 138 228.3 152.2 257C166.3 285.7 201.7 314.3 223.7 343C245.7 371.7 254.3 400.3 241.7 428.8C229 457.3 195 485.7 192 514.2C189 542.7 217 571.3 231 585.7L245 600L0 600L0 585.7C0 571.3 0 542.7 0 514.2C0 485.7 0 457.3 0 428.8C0 400.3 0 371.7 0 343C0 314.3 0 285.7 0 257C0 228.3 0 199.7 0 171.2C0 142.7 0 114.3 0 85.8C0 57.3 0 28.7 0 14.3L0 0Z" fill="#1955C6" stroke-linecap="round" stroke-linejoin="miter"></path></svg>